#!OML:ASF I:\golf\golf\golf 2\Subject 1\2002-09-07\Subject1.ASF
:FULLY-SPECIFIED
:DEGREES
144
root -0.823631 17.8433 -4.0922 16.6859 12.6554 -4.35752
lowerback 15.0694 2.45667 0.295998
upperback 8.97564 3.33737 3.70781
thorax 0.857122 1.60452 3.24753
lowerneck -15.4558 -0.148282 3.65015
upperneck 35.7193 2.41058 -9.56149
head 15.243 0.308904 -4.26643
rclavicle -3.49861e-014 1.19271e-014
rhumerus -7.00834 30.1242 -78.3592
rradius 65.3663
rwrist -16.2606
rhand -30.2728 17.9414
rfingers 7.12502
rthumb -3.58092 -12.0083
lclavicle -3.49861e-014 1.19271e-014
lhumerus -23.4955 -45.5098 92.983
lradius 63.7263
lwrist 9.08915
lhand -14.7754 30.8442
lfingers 7.12502
lthumb 11.3814 60.5154
rfemur -40.8065 -9.9587 30.1365
rtibia 33.4562
rfoot -6.59836 -10.7904
rtoes 9.4156
lfemur -43.1669 8.07473 -13.6549
ltibia 59.7274
lfoot -6.66416 -13.1878
ltoes -16.401
145
root -0.833315 17.8259 -4.08451 16.7404 12.5392 -4.3125
lowerback 15.9049 2.5779 0.296878
upperback 9.17758 3.50582 3.76642
thorax 0.622749 1.68628 3.25681
lowerneck -15.5459 -0.230913 3.49429
upperneck 35.4026 2.2825 -9.48837
head 15.0961 0.241464 -4.20831
rclavicle -3.65764e-014 -3.65764e-014
rhumerus -5.73199 30.063 -77.7585
rradius 63.9872
rwrist -16.0914
rhand -31.3386 17.7994
rfingers 7.12502
rthumb -4.6101 -12.1304
lclavicle -3.65764e-014 -3.65764e-014
lhumerus -23.0333 -45.6636 92.8508
lradius 63.5518
lwrist 8.99549
lhand -15.7675 29.8372
lfingers 7.12502
lthumb 10.4245 59.5588
rfemur -41.0816 -10.0879 30.2179
rtibia 33.8862
rfoot -6.79224 -10.64
rtoes 9.52637
lfemur -44.06 8.09867 -13.5757
ltibia 59.9531
lfoot -7.01032 -12.7671
ltoes -15.373
146
root -0.838841 17.8162 -4.07125 16.6845 12.2361 -4.30124
lowerback 16.8032 2.76721 0.334891
upperback 9.44306 3.76454 3.77897
thorax 0.427357 1.81406 3.17873
lowerneck -15.6527 -0.348033 3.41593
upperneck 35.0661 2.09623 -9.46681
head 14.941 0.153093 -4.19556
rclavicle 5.96354e-014 9.54166e-015
rhumerus -4.42255 29.9413 -77.1476
rradius 62.6385
rwrist -15.9466
rhand -32.4828 17.7683
rfingers 7.12502
rthumb -5.71491 -12.1346
lclavicle 5.96354e-014 9.54166e-015
lhumerus -22.5748 -45.881 92.6632
lradius 63.603
lwrist 9.10938
lhand -16.5704 28.852
lfingers 7.12502
lthumb 9.64982 58.611
rfemur -41.2103 -10.0978 30.2652
rtibia 34.3329
rfoot -6.92796 -10.4475
rtoes 9.32086
lfemur -44.6573 8.27676 -13.486
ltibia 59.9172
lfoot -7.39821 -12.2878
ltoes -15.4903
147
root -0.84473 17.8078 -4.0561 16.758 11.9181 -4.34025
lowerback 17.4299 2.97375 0.3497
upperback 9.74961 4.03581 3.82639
thorax 0.416261 1.94515 3.1581
lowerneck -15.7815 -0.455833 3.3959
upperneck 34.6899 1.92937 -9.52163
head 14.7776 0.070136 -4.22102
rclavicle 2.3059e-014 2.06736e-014
rhumerus -3.04315 29.7345 -76.4984
rradius 61.3354
rwrist -15.8517
rhand -33.3811 17.7369
rfingers 7.12502
rthumb -6.58213 -12.1408
lclavicle 2.3059e-014 2.06736e-014
lhumerus -22.0731 -46.0125 92.458
lradius 63.8705
lwrist 9.44315
lhand -17.4918 27.9949
lfingers 7.12502
lthumb 8.76082 57.7931
rfemur -41.464 -10.0314 30.3901
rtibia 34.7273
rfoot -6.99635 -10.2665
rtoes 8.5827
lfemur -45.3079 8.53312 -13.3896
ltibia 59.6145
lfoot -8.10077 -11.6751
ltoes -16.7713
148
root -0.860773 17.7852 -4.05893 17.4314 12.0628 -4.1469
lowerback 17.6642 3.0273 0.267897
upperback 9.87859 4.09431 3.85413
thorax 0.424198 1.96929 3.21746
lowerneck -15.9531 -0.5078 3.4565
upperneck 34.2994 1.81995 -9.58627
head 14.6255 0.0194249 -4.2561
rclavicle -1.74931e-014 7.15625e-015
rhumerus -1.59963 29.4132 -75.9286
rradius 59.9373
rwrist -15.7246
rhand -33.9173 17.6332
rfingers 7.12502
rthumb -7.09977 -12.2278
lclavicle -1.74931e-014 7.15625e-015
lhumerus -21.5517 -46.1013 92.1942
lradius 64.2102
lwrist 9.90102
lhand -17.8743 27.3937
lfingers 7.12502
lthumb 8.39167 57.207
rfemur -42.4906 -10.0941 30.4479
rtibia 35.1862
rfoot -6.97499 -10.3807
rtoes 7.96889
lfemur -46.7631 8.37162 -13.5167
ltibia 59.1223
lfoot -8.69023 -10.8862
ltoes -17.7488
149
root -0.860713 17.7808 -4.04593 17.4608 11.6623 -3.94446
lowerback 18.4838 3.24079 0.173761
upperback 10.2208 4.35492 3.76219
thorax 0.360168 2.09388 3.10066
lowerneck -16.1449 -0.564178 3.54113
upperneck 33.8987 1.7003 -9.66425
head 14.474 -0.0348691 -4.30253
rclavicle 3.49861e-014 -1.27222e-014
rhumerus -0.076403 28.9536 -75.3848
rradius 58.4618
rwrist -15.613
rhand -34.1799 17.5925
rfingers 7.12502
rthumb -7.35322 -12.2597
lclavicle 3.49861e-014 -1.27222e-014
lhumerus -21.0117 -46.3162 91.8638
lradius 64.6171
lwrist 10.8792
lhand -18.1588 26.856
lfingers 7.12502
lthumb 8.11708 56.6801
rfemur -42.6811 -10.0298 30.2334
rtibia 35.6621
rfoot -7.13623 -10.273
rtoes 8.04287
lfemur -47.1056 8.44098 -13.6691
ltibia 58.3333
lfoot -9.32293 -9.93806
ltoes -18.0291
150
root -0.865999 17.7638 -4.04792 17.839 11.5786 -3.77549
lowerback 19.1788 3.33641 0.18737
upperback 10.3918 4.48225 3.70699
thorax 0.19093 2.15706 2.98275
lowerneck -16.2057 -0.676902 3.50658
upperneck 33.4081 1.49973 -9.65183
head 14.2442 -0.125122 -4.29378
rclavicle -3.81667e-014 -5.56597e-015
rhumerus 1.47177 28.5461 -74.7558
rradius 57.0911
rwrist -15.6485
rhand -34.3605 17.5451
rfingers 7.12502
rthumb -7.52751 -12.301
lclavicle -3.81667e-014 -5.56597e-015
lhumerus -20.6049 -46.523 91.5706
lradius 65.1314
lwrist 12.3081
lhand -19.1712 25.4942
lfingers 7.12502
lthumb 7.13988 55.3538
rfemur -43.3942 -10.0974 30.2168
rtibia 36.198
rfoot -7.39498 -10.2708
rtoes 8.28406
lfemur -47.9831 8.29044 -13.7386
ltibia 57.4011
lfoot -9.66251 -9.09775
ltoes -17.8358
151
root -0.866778 17.744 -4.04767 18.2907 11.5089 -3.59316
lowerback 19.8239 3.42217 0.208738
upperback 10.5385 4.59724 3.65211
thorax 0.0248511 2.21432 2.86309
lowerneck -16.2613 -0.802741 3.36893
upperneck 32.9424 1.26617 -9.49484
head 14.0238 -0.223656 -4.21352
rclavicle 3.97569e-014 0
rhumerus 3.1174 28.2209 -74.0142
rradius 55.6731
rwrist -15.7649
rhand -34.7612 17.4305
rfingers 7.12502
rthumb -7.91429 -12.4013
lclavicle 3.97569e-014 0
lhumerus -20.3022 -46.6463 91.2896
lradius 65.8206
lwrist 13.1978
lhand -20.2552 23.8385
lfingers 7.12502
lthumb 6.09342 53.7309
rfemur -44.1555 -10.2074 30.1993
rtibia 36.6652
rfoot -7.68328 -10.2594
rtoes 7.86661
lfemur -48.8688 8.11318 -13.841
ltibia 56.2671
lfoot -9.94159 -8.20567
ltoes -16.9156
152
root -0.86279 17.7282 -4.04289 18.6724 11.3699 -3.43577
lowerback 20.4605 3.54728 0.265673
upperback 10.719 4.76677 3.60391
thorax -0.0977897 2.29912 2.71987
lowerneck -16.2634 -0.927495 3.29223
upperneck 32.4942 1.0406 -9.39834
head 13.8039 -0.317414 -4.16866
rclavicle 6.2816e-014 2.46493e-014
rhumerus 4.67945 27.7269 -73.3965
rradius 54.1197
rwrist -15.684
rhand -35.1275 17.2759
rfingers 7.12502
rthumb -8.2678 -12.5423
lclavicle 6.2816e-014 2.46493e-014
lhumerus -20.1059 -46.7646 91.0626
lradius 66.6232
lwrist 13.6223
lhand -20.5169 23.5634
lfingers 7.12502
lthumb 5.84078 53.4629
rfemur -44.8099 -10.2627 30.1495
rtibia 37.1232
rfoot -7.8664 -10.0874
rtoes 7.95799
lfemur -49.5659 7.91253 -13.8872
ltibia 54.9795
lfoot -10.265 -7.34227
ltoes -15.9879
